<?xml version="1.0" encoding="UTF-8" standalone="no"?><!DOCTYPE svg PUBLIC "-//W3C//DTD SVG 1.1//EN" "http://www.w3.org/Graphics/SVG/1.1/DTD/svg11.dtd"><svg width="100%" height="100%" viewBox="0 0 1000 1000" version="1.1" xmlns="http://www.w3.org/2000/svg" xmlns:xlink="http://www.w3.org/1999/xlink" xml:space="preserve" xmlns:serif="http://www.serif.com/" style="fill-rule:evenodd;clip-rule:evenodd;stroke-linejoin:round;stroke-miterlimit:1.41421;"><g id="Layer-2" serif:id="Layer 2"><path d="M603.204,894.626l0,-359.067c84.411,16.149 148.413,90.489 148.413,179.532c0,89.046 -64.002,163.384 -148.413,179.535m-430.182,-394.626c0,-137.863 70.487,-259.561 177.304,-330.991c-18.427,34.593 -28.891,74.045 -28.891,115.9c0,126.198 95.001,230.614 217.242,245.52l0,366.195c-204.382,-16.476 -365.655,-188.071 -365.655,-396.624m365.655,-395.396l0,360.607c-86.529,-14.405 -152.715,-89.749 -152.715,-180.302c0,-90.552 66.186,-165.898 152.715,-180.305m277.468,610.487c0,-124.714 -92.782,-228.147 -212.941,-244.95l0,-400.324c0,-17.818 -14.445,-32.263 -32.263,-32.263c-0.579,0 -1.155,0.019 -1.734,0.021c-0.14,-0.002 -0.278,-0.021 -0.417,-0.021c-2.427,0 -4.84,0.045 -7.251,0.114c-120.004,2.376 -232.473,50.211 -317.597,135.333c-87.345,87.344 -135.448,203.476 -135.448,326.999c0,123.525 48.103,239.655 135.448,327.001c86.675,86.671 201.701,134.682 324.166,135.413c0.228,0.004 0.452,0.032 0.682,0.032c0.352,0 0.701,-0.013 1.051,-0.013c0.368,0 0.732,0.013 1.1,0.013c0.243,0 0.479,-0.03 0.722,-0.034c135.071,-1.549 244.482,-111.888 244.482,-247.321" style="fill:#fff;fill-opacity:0.05;fill-rule:nonzero;"/></g></svg>